<?xml version="1.0" encoding="UTF-8" standalone="no"?>
<!DOCTYPE svg PUBLIC "-//W3C//DTD SVG 1.1//EN" "http://www.w3.org/Graphics/SVG/1.1/DTD/svg11.dtd">
<svg width="100%" height="100%" viewBox="0 0 1000 1000" version="1.1" xmlns="http://www.w3.org/2000/svg" xmlns:xlink="http://www.w3.org/1999/xlink" xml:space="preserve" xmlns:serif="http://www.serif.com/" style="fill-rule:evenodd;clip-rule:evenodd;stroke-linejoin:round;stroke-miterlimit:2;">
    <g transform="matrix(1.9489,0,0,1.9489,-283.46,-505.487)">
        <g id="book-fill.svg" transform="matrix(33.8125,0,0,28.875,416.356,515.924)">
            <clipPath id="_clip1">
                <rect x="-8" y="-8" width="7.575" height="16"/>
            </clipPath>
            <g clip-path="url(#_clip1)">
                <g transform="matrix(1,0,0,1,-8,-8)">
                    <path d="M8,1.783C7.015,0.936 5.587,0.81 4.287,0.94C2.773,1.093 1.245,1.612 0.293,2.045C0.115,2.126 0,2.304 0,2.5L0,13.5C0,13.774 0.226,14 0.5,14C0.571,14 0.642,13.985 0.707,13.955C1.589,13.555 3.01,13.074 4.387,12.935C5.796,12.793 6.977,13.022 7.61,13.812C7.705,13.93 7.848,13.999 8,13.999C8.152,13.999 8.295,13.93 8.39,13.812C9.023,13.022 10.204,12.793 11.612,12.935C12.99,13.074 14.412,13.555 15.293,13.955C15.358,13.985 15.429,14 15.5,14C15.774,14 16,13.774 16,13.5L16,2.5C16,2.304 15.885,2.126 15.707,2.045C14.755,1.612 13.227,1.093 11.713,0.94C10.413,0.809 8.985,0.936 8,1.783Z" style="fill-rule:nonzero;"/>
                </g>
            </g>
        </g>
        <g transform="matrix(0.670298,0,0,1.12592,250.667,-121.25)">
            <path d="M324.789,383.276L324.789,519.679L478.236,392.876C514.877,397.72 551.519,404.108 588.16,412.063L417.766,557.799L604.649,714C589.534,732.98 492.483,701.784 461.966,699.432L348.034,617.304L324.789,637.294L324.789,692.098C291.783,692.418 258.776,697.534 225.769,714L225.769,398.849C257.227,390.277 290.27,385.165 324.789,383.276Z" style="fill-rule:nonzero;"/>
        </g>
    </g>
</svg>
